<svg width="145.000000" height="19.000000" viewBox="0 0 145 19" fill="none" xmlns="http://www.w3.org/2000/svg" xmlns:xlink="http://www.w3.org/1999/xlink">
	<desc>
			Created with Pixso.
	</desc>
	<defs/>
	<path id="WebStudio" d="M108.89 18.39C109.68 18.75 110.55 18.93 111.49 18.93C112.42 18.93 113.31 18.72 114.16 18.28C115.03 17.83 115.71 17.17 116.22 16.31L116.3 17.17C116.35 17.67 116.57 18.08 116.97 18.39C117.37 18.7 117.88 18.86 118.51 18.86C118.89 18.86 119.38 18.79 119.99 18.67L119.99 15.71C119.69 15.69 119.48 15.61 119.36 15.45C119.24 15.29 119.18 15.03 119.18 14.67L119.18 -0.31L115.7 -0.31L115.7 7.44Q115.49 7.09 115.24 6.78Q114.65 6.05 113.8 5.54C113 5.06 112.1 4.82 111.1 4.82Q110.02 4.82 109.09 5.17Q108.87 5.26 108.65 5.36C107.91 5.73 107.26 6.23 106.73 6.87Q105.92 7.83 105.45 9.1C105.16 9.95 105.01 10.87 105.01 11.86C105.01 12.85 105.17 13.78 105.48 14.64C105.81 15.49 106.26 16.24 106.83 16.88C107.4 17.52 108.09 18.02 108.89 18.39ZM123.38 -0.31L123.38 3.15L126.87 3.15L126.87 -0.31L123.38 -0.31ZM72.32 4.56C72.65 4.76 72.87 4.93 73 5.05L74.58 2.14C73.77 1.58 72.81 1.11 71.72 0.71C70.63 0.29 69.43 0.08 68.13 0.08C67.2 0.08 66.32 0.21 65.51 0.47C64.69 0.72 63.97 1.08 63.35 1.57C62.74 2.05 62.27 2.66 61.92 3.39C61.57 4.11 61.4 4.94 61.4 5.88Q61.4 6.95 61.71 7.73C61.94 8.23 62.27 8.68 62.7 9.08Q63.35 9.65 64.31 10.09C64.97 10.37 65.74 10.63 66.63 10.87C67.35 11.08 68.01 11.27 68.6 11.45C69.19 11.62 69.69 11.81 70.11 12.02C70.53 12.23 70.85 12.47 71.07 12.75C71.3 13.02 71.41 13.36 71.41 13.76C71.41 15.02 70.42 15.66 68.45 15.66C67.73 15.66 67.04 15.57 66.37 15.4Q65.35 15.14 64.52 14.77C63.96 14.51 63.48 14.26 63.06 14.02C62.66 13.76 62.39 13.55 62.23 13.4L60.65 16.49C61.72 17.25 62.93 17.84 64.29 18.26C65.64 18.67 67.01 18.88 68.39 18.88C69.29 18.88 70.15 18.79 70.97 18.6C71.8 18.39 72.53 18.07 73.15 17.63C73.79 17.2 74.3 16.64 74.66 15.94Q75.23 14.88 75.23 13.4C75.23 12.55 75.09 11.84 74.82 11.26Q74.65 10.92 74.43 10.61Q74.09 10.13 73.62 9.76Q72.87 9.13 71.75 8.72Q70.66 8.3 69.3 7.94C68.61 7.76 67.99 7.6 67.46 7.44C66.94 7.29 66.5 7.11 66.16 6.92C65.81 6.73 65.54 6.51 65.35 6.27C65.18 6.01 65.09 5.69 65.09 5.31C65.09 4.65 65.33 4.14 65.82 3.78C66.3 3.41 67.04 3.23 68.03 3.23C68.58 3.23 69.13 3.3 69.67 3.44C70.2 3.58 70.7 3.75 71.15 3.96C71.62 4.15 72.01 4.35 72.32 4.56ZM84.68 18.6Q85.69 18.28 86.4 17.97L85.69 15.22C85.49 15.3 85.21 15.41 84.86 15.53C84.52 15.65 84.16 15.71 83.8 15.71C83.43 15.71 83.12 15.61 82.86 15.42C82.62 15.22 82.5 14.87 82.5 14.38L82.5 7.73L85.36 7.73L85.36 5.05L82.5 5.05L82.5 0.63L79.01 0.63L79.01 5.05L77.22 5.05L77.22 7.73L79.01 7.73L79.01 15.55C79.01 16.16 79.11 16.68 79.3 17.11C79.49 17.53 79.74 17.88 80.05 18.15C80.38 18.41 80.75 18.6 81.17 18.73C81.6 18.85 82.06 18.91 82.55 18.91C83.29 18.91 84 18.8 84.68 18.6ZM134.09 18.36C134.97 18.74 135.97 18.93 137.08 18.93C138.19 18.93 139.19 18.74 140.07 18.36C140.95 17.98 141.7 17.47 142.31 16.83C142.91 16.17 143.38 15.41 143.71 14.57C144.04 13.72 144.2 12.82 144.2 11.89C144.2 10.93 144.04 10.03 143.71 9.18C143.38 8.33 142.9 7.59 142.28 6.95C141.67 6.29 140.93 5.77 140.04 5.39C139.18 5.01 138.19 4.82 137.08 4.82C135.97 4.82 134.97 5.01 134.09 5.39C133.21 5.77 132.45 6.29 131.83 6.95C131.22 7.59 130.75 8.33 130.42 9.18C130.09 10.03 129.93 10.93 129.93 11.89C129.93 12.82 130.09 13.72 130.42 14.57Q130.73 15.36 131.2 16.04Q131.49 16.45 131.83 16.83Q131.86 16.86 131.89 16.89Q132.81 17.81 134.09 18.36ZM90.57 18.18Q91.58 18.93 93.15 18.93C94.29 18.93 95.34 18.7 96.3 18.23C97.25 17.76 98.03 17.06 98.64 16.12L98.71 17.22Q98.78 17.66 99 18Q99.16 18.23 99.39 18.41C99.79 18.69 100.3 18.83 100.93 18.83C101.12 18.83 101.32 18.82 101.55 18.8C101.79 18.79 102.09 18.74 102.43 18.67L102.43 15.71C102.14 15.69 101.92 15.61 101.78 15.45C101.66 15.29 101.6 15.03 101.6 14.67L101.6 5.05L98.12 5.05L98.12 13.5C97.72 14.33 97.2 14.96 96.56 15.37C95.93 15.77 95.28 15.97 94.61 15.97C93.1 15.97 92.34 14.92 92.34 12.82L92.34 5.05L88.86 5.05L88.86 13.58Q88.86 16.23 89.95 17.58Q90.23 17.92 90.57 18.18ZM123.38 5.05L123.38 18.67L126.87 18.67L126.87 5.05L123.38 5.05ZM113.41 15.81C113.06 15.92 112.72 15.97 112.4 15.97C111.84 15.97 111.33 15.87 110.86 15.66C110.41 15.45 110.02 15.16 109.69 14.8C109.36 14.44 109.1 14.01 108.91 13.53C108.72 13.04 108.63 12.51 108.63 11.94C108.63 11.4 108.71 10.88 108.89 10.38C109.06 9.88 109.3 9.43 109.61 9.05C109.93 8.65 110.3 8.34 110.73 8.12C111.18 7.89 111.67 7.78 112.19 7.78C112.53 7.78 112.88 7.85 113.23 7.99C113.59 8.13 113.93 8.32 114.24 8.56C114.57 8.78 114.86 9.06 115.1 9.39C115.36 9.7 115.56 10.05 115.7 10.43L115.7 13.68Q115.67 13.75 115.64 13.82Q115.47 14.23 115.15 14.59C114.93 14.87 114.67 15.11 114.37 15.32C114.08 15.53 113.76 15.69 113.41 15.81ZM133.78 13.55C133.6 13.05 133.52 12.49 133.52 11.89Q133.52 11 133.78 10.25C133.97 9.75 134.22 9.31 134.53 8.95Q134.85 8.6 135.23 8.35Q135.44 8.2 135.68 8.09C136.11 7.88 136.58 7.78 137.08 7.78C137.58 7.78 138.05 7.88 138.48 8.09C138.92 8.28 139.29 8.56 139.6 8.92C139.93 9.29 140.18 9.72 140.36 10.22C140.55 10.73 140.64 11.27 140.64 11.86C140.64 12.47 140.55 13.02 140.36 13.53C140.18 14.03 139.93 14.46 139.6 14.83C139.29 15.19 138.92 15.48 138.48 15.68C138.05 15.87 137.58 15.97 137.08 15.97Q136.44 15.97 135.88 15.76Q135.78 15.73 135.68 15.68C135.24 15.48 134.86 15.19 134.53 14.83C134.22 14.46 133.97 14.04 133.78 13.55Z" fill="#000000" fill-opacity="1.000000" fill-rule="evenodd"/>
	<path id="WebStudio" d="M49.37 18.23C50.18 18.7 51.11 18.93 52.15 18.93C53.05 18.93 53.89 18.75 54.67 18.39C55.45 18.02 56.13 17.53 56.7 16.91C57.27 16.26 57.71 15.52 58.02 14.67Q58.52 13.4 58.52 11.91C58.52 10.96 58.37 10.05 58.08 9.18Q57.66 7.88 56.85 6.92Q56.44 6.41 55.94 6.01Q55.5 5.66 54.98 5.39Q54.78 5.28 54.56 5.19Q53.64 4.82 52.56 4.82Q51.04 4.82 49.88 5.46Q49.83 5.49 49.78 5.52C49 5.97 48.37 6.61 47.88 7.44L47.88 -0.31L44.4 -0.31L44.4 18.67L47.44 18.67L47.44 16.31C47.91 17.12 48.55 17.76 49.37 18.23ZM11.59 0.26L8.29 0.26L11.38 8.66L9.1 14.57L3.84 0.21L0 0.21L7.46 18.67L10.47 18.67L13.67 10.93L16.87 18.67L19.89 18.67L27.4 0.21L23.5 0.21L18.27 14.57L15.93 8.66L19.08 0.26L15.75 0.26L13.67 6.38L11.59 0.26ZM31.41 18.39C32.29 18.75 33.28 18.93 34.37 18.93Q36.66 18.93 38.3 17.95Q39.72 17.08 40.48 15.82Q40.61 15.6 40.72 15.37L37.73 14.54C37.5 15.09 37.08 15.54 36.45 15.89C35.85 16.22 35.2 16.39 34.5 16.39Q34.09 16.39 33.7 16.3Q33.45 16.24 33.2 16.15C32.79 16 32.42 15.77 32.09 15.48C31.76 15.18 31.49 14.83 31.28 14.41C31.07 13.99 30.94 13.52 30.89 12.98L41.42 12.98C41.46 12.84 41.47 12.67 41.47 12.46C41.49 12.25 41.5 12.03 41.5 11.81C41.5 10.89 41.33 10.01 41 9.16C40.69 8.31 40.22 7.56 39.6 6.92C38.99 6.28 38.25 5.77 37.36 5.39C36.5 5.01 35.51 4.82 34.4 4.82Q32.74 4.82 31.38 5.39C30.5 5.77 29.75 6.29 29.12 6.95C28.5 7.59 28.02 8.34 27.69 9.21C27.36 10.06 27.2 10.97 27.2 11.94C27.2 12.88 27.36 13.77 27.69 14.62C28.04 15.47 28.52 16.21 29.15 16.85C29.77 17.49 30.53 18.01 31.41 18.39ZM36.77 8.27C37.44 8.88 37.82 9.69 37.91 10.72L30.84 10.72C30.87 10.21 30.99 9.76 31.18 9.34Q31.49 8.72 31.96 8.27C32.27 7.98 32.62 7.75 33.02 7.6C33.44 7.42 33.88 7.34 34.35 7.34Q35.19 7.34 35.88 7.66Q36.36 7.89 36.77 8.27ZM52.65 15.69Q51.97 15.97 51.19 15.97C50.86 15.97 50.52 15.92 50.17 15.81Q49.65 15.63 49.21 15.35C48.92 15.14 48.65 14.89 48.4 14.62C48.18 14.34 48.01 14.03 47.88 13.68L47.88 10.43C48.21 9.69 48.68 9.06 49.29 8.56Q49.84 8.1 50.47 7.91Q50.91 7.78 51.39 7.78C51.91 7.78 52.39 7.89 52.82 8.12C53.26 8.34 53.63 8.65 53.94 9.03C54.27 9.41 54.52 9.85 54.7 10.35C54.87 10.86 54.96 11.38 54.96 11.94C54.96 12.49 54.86 13.01 54.67 13.5C54.5 13.98 54.25 14.41 53.92 14.77C53.59 15.14 53.19 15.43 52.72 15.66Q52.68 15.67 52.65 15.69Z" fill="#2196F3" fill-opacity="1.000000" fill-rule="evenodd"/>
</svg>
